<svg width="34" height="34" viewBox="0 0 34 34" fill="none" xmlns="http://www.w3.org/2000/svg">
<g clip-path="url(#clip0_1_197)">
<path d="M6.48903 22.1735C6.56941 22.9651 6.99773 23.6753 7.60724 24.1549C7.26605 24.5563 7.05953 25.0756 7.05953 25.6424V27.7675C7.05953 28.6835 7.58818 29.4725 8.36307 29.8431C8.31916 30.0548 8.2959 30.274 8.2959 30.4985C8.2959 32.275 9.74121 33.7203 11.5177 33.7203C13.2942 33.7203 14.7395 32.275 14.7395 30.4985C14.7395 30.3528 14.7289 30.2097 14.7101 30.0692H20.0094C19.9906 30.2098 19.98 30.3528 19.98 30.4985C19.98 32.275 21.4253 33.7203 23.2018 33.7203C24.9783 33.7203 26.4236 32.275 26.4236 30.4985C26.4236 28.7219 24.9783 27.2766 23.2018 27.2766C22.1241 27.2766 21.1691 27.809 20.5839 28.624H14.1356C13.5503 27.809 12.5953 27.2766 11.5176 27.2766C10.4822 27.2766 9.56002 27.7681 8.97018 28.5295C8.69271 28.3878 8.50449 28.1006 8.50449 27.7676V25.6425C8.50449 25.1705 8.8887 24.7866 9.361 24.7866C9.3632 24.7866 9.36533 24.7863 9.36753 24.7863C9.37194 24.7863 9.37634 24.7866 9.38068 24.7866H26.2754C27.6724 24.7866 29.1192 23.751 29.5696 22.4288L33.8627 9.8233C34.1056 9.11008 34.023 8.39093 33.6359 7.85023C33.2489 7.30953 32.5947 6.99937 31.8413 6.99937H30.3005L25.6572 2.33388C24.9353 1.61212 23.7652 1.60586 23.0349 2.31433L15.1989 4.42208L13.0955 0.650462C12.9011 0.301969 12.4611 0.177065 12.1125 0.371337L7.90529 2.71774C7.73786 2.81106 7.61447 2.96714 7.56217 3.1515C7.5098 3.33586 7.53285 3.53344 7.62624 3.7008L9.46587 6.9993H7.72307C7.25834 6.9993 6.82059 7.11801 6.44099 7.34057L6.09979 3.92935C6.06284 3.55993 5.75199 3.27868 5.38079 3.27868H0.722586C0.323512 3.27868 0 3.60219 0 4.00126C0 4.40034 0.323512 4.72385 0.722586 4.72385H4.72688L6.48903 22.1735ZM23.202 28.7217C24.1816 28.7217 24.9786 29.5188 24.9786 30.4984C24.9786 31.478 24.1816 32.2751 23.202 32.2751C22.2223 32.2751 21.4253 31.4781 21.4253 30.4984C21.4253 29.5187 22.2223 28.7217 23.202 28.7217ZM11.5177 28.7217C12.4974 28.7217 13.2944 29.5188 13.2944 30.4984C13.2944 31.478 12.4974 32.2751 11.5177 32.2751C10.5381 32.2751 9.74114 31.4781 9.74114 30.4984C9.74114 29.5187 10.5381 28.7217 11.5177 28.7217ZM24.6345 3.35451L28.2618 6.9993H20.393L24.0364 3.35582C24.2016 3.19059 24.4703 3.19059 24.6345 3.35451ZM20.9866 4.36187L18.3492 6.9993H16.6363L15.9248 5.72349L20.9866 4.36187ZM9.24022 3.62793L12.1853 1.98546L14.9816 6.9993H11.1205L9.24022 3.62793ZM32.4949 9.35727L28.2018 21.9628C27.9516 22.6972 27.0515 23.3413 26.2756 23.3413H9.38088C8.66497 23.3413 7.99902 22.7396 7.92677 22.0276L7.67145 19.5093H23.2069C23.606 19.5093 23.9295 19.1857 23.9295 18.7867C23.9295 18.3876 23.606 18.0641 23.2069 18.0641H7.52501L6.66988 9.62896C6.66988 9.62876 6.66988 9.62869 6.66988 9.62855L6.66974 9.62697C6.63719 9.30566 6.73023 9.00596 6.93187 8.78285C7.12903 8.56463 7.41001 8.44447 7.72307 8.44447H29.9937C29.9961 8.44454 29.9984 8.44482 30.0008 8.44482C30.0031 8.44482 30.0055 8.44454 30.0078 8.44447H31.8416C32.1271 8.44447 32.3471 8.53215 32.461 8.69132C32.575 8.85043 32.587 9.08695 32.4949 9.35727Z" fill="black"/>
</g>
<defs>
<clipPath id="clip0_1_197">
<rect width="34" height="34" fill="white"/>
</clipPath>
</defs>
</svg>
