<svg width="22" height="22" viewBox="0 0 22 22" fill="none" xmlns="http://www.w3.org/2000/svg">
<g clip-path="url(#clip0_172_2193)">
<path d="M6.0451 15.9547C6.17951 16.0891 6.35516 16.1562 6.53116 16.1562C6.70716 16.1562 6.88282 16.0891 7.01723 15.9547L10.9999 11.972L14.9826 15.9547C15.117 16.0891 15.2927 16.1562 15.4687 16.1562C15.6447 16.1562 15.8203 16.0891 15.9547 15.9547C16.2232 15.6863 16.2232 15.2511 15.9547 14.9826L11.972 10.9999L15.9547 7.01723C16.2232 6.74876 16.2232 6.31357 15.9547 6.0451C15.6863 5.77663 15.2511 5.77663 14.9826 6.0451L10.9999 10.0278L7.01723 6.0451C6.74876 5.77663 6.31357 5.77663 6.0451 6.0451C5.77663 6.31357 5.77663 6.74876 6.0451 7.01723L10.0278 10.9999L6.0451 14.9826C5.77663 15.2511 5.77663 15.6863 6.0451 15.9547Z" fill="black"/>
<path d="M11 22C13.938 22 16.7004 20.8557 18.7777 18.778C20.8557 16.7004 22 13.938 22 11C22 8.06197 20.8557 5.29959 18.7777 3.22231C16.7004 1.14434 13.938 0 11 0C8.06197 0 5.29959 1.14434 3.22231 3.22197C1.14434 5.29959 0 8.06197 0 11C0 13.938 1.14434 16.7004 3.22231 18.7777C5.29959 20.8557 8.06197 22 11 22ZM4.19444 4.19444C6.01219 2.37634 8.42909 1.375 11 1.375C13.5709 1.375 15.9878 2.37634 17.8056 4.19444C19.6237 6.01219 20.625 8.42909 20.625 11C20.625 13.5709 19.6237 15.9878 17.8056 17.8056C15.9878 19.6237 13.5709 20.625 11 20.625C8.42909 20.625 6.01219 19.6237 4.19444 17.8056C2.37634 15.9878 1.375 13.5709 1.375 11C1.375 8.42909 2.37634 6.01219 4.19444 4.19444Z" fill="black"/>
</g>
<defs>
<clipPath id="clip0_172_2193">
<rect width="22" height="22" fill="white"/>
</clipPath>
</defs>
</svg>
