<svg width="112" height="25" viewBox="0 0 112 25" fill="none" xmlns="http://www.w3.org/2000/svg">
<path d="M30.1041 6.856C30.1041 6.11067 30.2341 5.452 30.4941 4.88C30.7541 4.308 31.1008 3.83133 31.5341 3.45C31.9501 3.086 32.4181 2.80867 32.9381 2.618C33.4754 2.42733 34.0128 2.332 34.5501 2.332C35.0874 2.332 35.6161 2.42733 36.1361 2.618C36.6734 2.80867 37.1588 3.086 37.5921 3.45C38.0081 3.83133 38.3461 4.308 38.6061 4.88C38.8661 5.452 38.9961 6.11067 38.9961 6.856V7.792H36.3441V6.856C36.3441 6.21467 36.1621 5.74667 35.7981 5.452C35.4514 5.14 35.0354 4.984 34.5501 4.984C34.0648 4.984 33.6401 5.14 33.2761 5.452C32.9294 5.74667 32.7561 6.21467 32.7561 6.856V16.632C32.7561 17.2733 32.9294 17.75 33.2761 18.062C33.6401 18.3567 34.0648 18.504 34.5501 18.504C35.0354 18.504 35.4514 18.3567 35.7981 18.062C36.1621 17.75 36.3441 17.2733 36.3441 16.632V13.148H34.2381V10.808H38.9961V16.632C38.9961 17.412 38.8661 18.0793 38.6061 18.634C38.3461 19.1887 38.0081 19.648 37.5921 20.012C37.1588 20.3933 36.6734 20.6793 36.1361 20.87C35.6161 21.0607 35.0874 21.156 34.5501 21.156C34.0128 21.156 33.4754 21.0607 32.9381 20.87C32.4181 20.6793 31.9501 20.3933 31.5341 20.012C31.1008 19.648 30.7541 19.1887 30.4941 18.634C30.2341 18.0793 30.1041 17.412 30.1041 16.632V6.856ZM43.9824 4.984V10.756H45.4904C45.9584 10.756 46.3311 10.6953 46.6084 10.574C46.8857 10.4353 47.1024 10.2447 47.2584 10.002C47.3971 9.75933 47.4924 9.46467 47.5444 9.118C47.5964 8.754 47.6224 8.338 47.6224 7.87C47.6224 7.402 47.5964 6.99467 47.5444 6.648C47.4924 6.284 47.3884 5.972 47.2324 5.712C46.9031 5.22667 46.2791 4.984 45.3604 4.984H43.9824ZM41.3304 21V2.488H45.5944C48.7144 2.488 50.2744 4.29933 50.2744 7.922C50.2744 9.014 50.1011 9.94133 49.7544 10.704C49.4251 11.4667 48.8357 12.082 47.9864 12.55L50.8464 21H48.0384L45.5684 13.096H43.9824V21H41.3304ZM52.4787 21V2.488H55.1307V21H52.4787ZM57.7074 21V2.488H60.3594V18.348H65.6114V21H57.7074ZM67.3304 21V2.488H69.9824V18.348H75.2344V21H67.3304Z" fill="black"/>
<path d="M76.7974 6.856C76.7974 6.11067 76.9274 5.452 77.1874 4.88C77.4474 4.308 77.7941 3.83133 78.2274 3.45C78.6434 3.086 79.1114 2.80867 79.6314 2.618C80.1688 2.42733 80.7061 2.332 81.2434 2.332C81.7808 2.332 82.3094 2.42733 82.8294 2.618C83.3668 2.80867 83.8521 3.086 84.2854 3.45C84.7014 3.83133 85.0394 4.308 85.2994 4.88C85.5594 5.452 85.6894 6.11067 85.6894 6.856V16.632C85.6894 17.412 85.5594 18.0793 85.2994 18.634C85.0394 19.1887 84.7014 19.648 84.2854 20.012C83.8521 20.3933 83.3668 20.6793 82.8294 20.87C82.3094 21.0607 81.7808 21.156 81.2434 21.156C80.7061 21.156 80.1688 21.0607 79.6314 20.87C79.1114 20.6793 78.6434 20.3933 78.2274 20.012C77.7941 19.648 77.4474 19.1887 77.1874 18.634C76.9274 18.0793 76.7974 17.412 76.7974 16.632V6.856ZM79.4494 16.632C79.4494 17.2733 79.6228 17.75 79.9694 18.062C80.3334 18.3567 80.7581 18.504 81.2434 18.504C81.7288 18.504 82.1448 18.3567 82.4914 18.062C82.8554 17.75 83.0374 17.2733 83.0374 16.632V6.856C83.0374 6.21467 82.8554 5.74667 82.4914 5.452C82.1448 5.14 81.7288 4.984 81.2434 4.984C80.7581 4.984 80.3334 5.14 79.9694 5.452C79.6228 5.74667 79.4494 6.21467 79.4494 6.856V16.632ZM88.0238 21V2.488H95.9278V4.984L90.6758 4.984V10.6H95.2518V13.096H90.6758V21H88.0238ZM97.6468 21V2.488H105.551V4.984H100.299V10.6H104.875V13.096H100.299V21H97.6468Z" fill="#CC2929"/>
<path d="M22.9398 20.4635L22.9398 16.5873C22.9398 16.5873 16.8356 15.6997 13.0629 16.5873C9.62716 17.3957 8.2583 19.9286 4.77912 20.4635C2.93053 20.7477 3.06029e-08 20.4635 3.06029e-08 20.4635C3.06029e-08 20.4635 2.82263 21.9973 4.77912 22.2254C8.26363 22.6316 9.89553 19.7967 13.3815 19.4064C17.1138 18.9885 22.9398 20.4635 22.9398 20.4635Z" fill="#CC2929"/>
<path d="M22.9398 14.3912L22.9398 10.515C22.9398 10.515 16.8356 9.62736 13.0629 10.515C9.62716 11.3233 8.2583 13.8563 4.77912 14.3912C2.93053 14.6754 3.06029e-08 14.3912 3.06029e-08 14.3912C3.06029e-08 14.3912 2.82263 15.925 4.77912 16.1531C8.26363 16.5592 9.89553 13.7243 13.3815 13.334C17.1138 12.9161 22.9398 14.3912 22.9398 14.3912Z" fill="#CC2929"/>
<path d="M22.9398 8.11871L22.9398 3.81184C22.9398 3.81184 16.8356 2.82559 13.0629 3.81184C9.62716 4.71001 8.2583 7.52439 4.77912 8.11871C2.93053 8.43449 3.40032e-08 8.11871 3.40032e-08 8.11871C3.40032e-08 8.11871 2.82263 9.82299 4.77912 10.0764C8.26363 10.5277 9.89553 7.37779 13.3815 6.94411C17.1138 6.47979 22.9398 8.11871 22.9398 8.11871Z" fill="#CC2929"/>
</svg>
