<svg width="262" height="59" viewBox="0 0 262 59" fill="none" xmlns="http://www.w3.org/2000/svg">
<path d="M70.5555 17.184C70.5555 15.3493 70.8755 13.728 71.5155 12.32C72.1555 10.912 73.0088 9.73866 74.0755 8.8C75.0995 7.904 76.2515 7.22133 77.5315 6.752C78.8541 6.28266 80.1768 6.048 81.4995 6.048C82.8221 6.048 84.1235 6.28266 85.4035 6.752C86.7261 7.22133 87.9208 7.904 88.9875 8.8C90.0115 9.73866 90.8435 10.912 91.4835 12.32C92.1235 13.728 92.4435 15.3493 92.4435 17.184V19.488H85.9155V17.184C85.9155 15.6053 85.4675 14.4533 84.5715 13.728C83.7181 12.96 82.6941 12.576 81.4995 12.576C80.3048 12.576 79.2595 12.96 78.3635 13.728C77.5101 14.4533 77.0835 15.6053 77.0835 17.184V41.248C77.0835 42.8267 77.5101 44 78.3635 44.768C79.2595 45.4933 80.3048 45.856 81.4995 45.856C82.6941 45.856 83.7181 45.4933 84.5715 44.768C85.4675 44 85.9155 42.8267 85.9155 41.248V32.672H80.7315V26.912H92.4435V41.248C92.4435 43.168 92.1235 44.8107 91.4835 46.176C90.8435 47.5413 90.0115 48.672 88.9875 49.568C87.9208 50.5067 86.7261 51.2107 85.4035 51.68C84.1235 52.1493 82.8221 52.384 81.4995 52.384C80.1768 52.384 78.8541 52.1493 77.5315 51.68C76.2515 51.2107 75.0995 50.5067 74.0755 49.568C73.0088 48.672 72.1555 47.5413 71.5155 46.176C70.8755 44.8107 70.5555 43.168 70.5555 41.248V17.184ZM104.717 12.576V26.784H108.429C109.581 26.784 110.499 26.6347 111.181 26.336C111.864 25.9947 112.397 25.5253 112.781 24.928C113.123 24.3307 113.357 23.6053 113.485 22.752C113.613 21.856 113.677 20.832 113.677 19.68C113.677 18.528 113.613 17.5253 113.485 16.672C113.357 15.776 113.101 15.008 112.717 14.368C111.907 13.1733 110.371 12.576 108.109 12.576H104.717ZM98.1895 52V6.432H108.685C116.365 6.432 120.205 10.8907 120.205 19.808C120.205 22.496 119.779 24.7787 118.925 26.656C118.115 28.5333 116.664 30.048 114.573 31.2L121.613 52H114.701L108.621 32.544H104.717V52H98.1895ZM125.631 52V6.432L132.159 6.432V52H125.631ZM138.502 52V6.432H145.03V45.472H157.958V52H138.502ZM162.189 52V6.432H168.717V45.472H181.645V52H162.189Z" fill="black"/>
<path d="M185.493 17.184C185.493 15.3493 185.813 13.728 186.453 12.32C187.093 10.912 187.946 9.73866 189.013 8.8C190.037 7.904 191.189 7.22133 192.469 6.752C193.792 6.28266 195.114 6.048 196.437 6.048C197.76 6.048 199.061 6.28266 200.341 6.752C201.664 7.22133 202.858 7.904 203.925 8.8C204.949 9.73866 205.781 10.912 206.421 12.32C207.061 13.728 207.381 15.3493 207.381 17.184V41.248C207.381 43.168 207.061 44.8107 206.421 46.176C205.781 47.5413 204.949 48.672 203.925 49.568C202.858 50.5067 201.664 51.2107 200.341 51.68C199.061 52.1493 197.76 52.384 196.437 52.384C195.114 52.384 193.792 52.1493 192.469 51.68C191.189 51.2107 190.037 50.5067 189.013 49.568C187.946 48.672 187.093 47.5413 186.453 46.176C185.813 44.8107 185.493 43.168 185.493 41.248V17.184ZM192.021 41.248C192.021 42.8267 192.448 44 193.301 44.768C194.197 45.4933 195.242 45.856 196.437 45.856C197.632 45.856 198.656 45.4933 199.509 44.768C200.405 44 200.853 42.8267 200.853 41.248V17.184C200.853 15.6053 200.405 14.4533 199.509 13.728C198.656 12.96 197.632 12.576 196.437 12.576C195.242 12.576 194.197 12.96 193.301 13.728C192.448 14.4533 192.021 15.6053 192.021 17.184V41.248ZM213.127 52V6.432H232.583V12.576H219.655V26.4H230.919V32.544H219.655V52H213.127ZM236.814 52V6.432H256.27V12.576H243.342V26.4H254.606V32.544H243.342V52H236.814Z" fill="#CC2929"/>
<path d="M53.6627 47.8699L53.6627 38.8024C53.6627 38.8024 39.3834 36.726 30.5579 38.8024C22.5207 40.6933 19.3185 46.6186 11.1797 47.8699C6.85535 48.5347 7.15889e-08 47.8699 7.15889e-08 47.8699C7.15889e-08 47.8699 6.60295 51.458 11.1797 51.9915C19.331 52.9416 23.1485 46.31 31.3032 45.3969C40.034 44.4194 53.6627 47.8699 53.6627 47.8699Z" fill="#CC2929"/>
<path d="M53.6627 33.665L53.6627 24.5975C53.6627 24.5975 39.3834 22.5211 30.5579 24.5975C22.5207 26.4885 19.3185 32.4138 11.1797 33.665C6.85535 34.3299 7.15889e-08 33.665 7.15889e-08 33.665C7.15889e-08 33.665 6.60295 37.2532 11.1797 37.7866C19.331 38.7368 23.1485 32.1051 31.3032 31.1921C40.034 30.2145 53.6627 33.665 53.6627 33.665Z" fill="#CC2929"/>
<path d="M53.6627 18.992L53.6627 8.91696C53.6627 8.91696 39.3834 6.60983 30.5579 8.91696C22.5207 11.018 19.3185 17.6017 11.1797 18.992C6.85535 19.7307 7.95432e-08 18.992 7.95432e-08 18.992C7.95432e-08 18.992 6.60295 22.9788 11.1797 23.5715C19.331 24.6272 23.1485 17.2587 31.3032 16.2442C40.034 15.1581 53.6627 18.992 53.6627 18.992Z" fill="#CC2929"/>
</svg>
