<svg width="19" height="19" viewBox="0 0 19 19" fill="none" xmlns="http://www.w3.org/2000/svg">
<g clip-path="url(#clip0_1_205)">
<path d="M0 19L1.92661 13.4954C1.18672 12.1549 0.79685 10.6416 0.79685 9.10159C0.79685 6.67048 1.74355 4.38484 3.46264 2.66583C5.18173 0.946808 7.4673 0 9.89844 0C12.3296 0 14.6152 0.946697 16.3342 2.66579C18.0533 4.38488 19 6.67045 19 9.10156C19 11.5327 18.0533 13.8183 16.3342 15.5373C14.6152 17.2564 12.3296 18.2031 9.89844 18.2031C8.3584 18.2031 6.84512 17.8133 5.50462 17.0734L0 19Z" fill="#7ECE30"/>
<path d="M0 19L5.50454 17.0734C6.84508 17.8133 8.3584 18.2032 9.89841 18.2032C12.3295 18.2032 14.6152 17.2564 16.3342 15.5374C18.0532 13.8183 19 11.5327 19 9.10157C19 6.67042 18.0533 4.38486 16.3342 2.6658L0 19Z" fill="#54AD4A"/>
<path d="M7.83068 11.1692C10.0068 13.3454 12.4766 14.4039 13.3471 13.5334L14.3978 12.4827C14.6154 12.2651 14.6154 11.9122 14.3978 11.6946L13.0844 10.3812C12.8668 10.1636 12.5139 10.1636 12.2963 10.3812L11.5083 11.1693C9.89448 10.4049 8.59509 9.10544 7.83068 7.4917L8.61873 6.70364C8.83634 6.48603 8.83634 6.13319 8.61873 5.91559L7.30532 4.60217C7.08771 4.38456 6.73488 4.38456 6.51727 4.60217L5.46655 5.65289C4.59604 6.52333 5.65451 8.99307 7.83068 11.1692Z" fill="white"/>
<path d="M14.3982 11.6946L13.0847 10.3812C12.8671 10.1636 12.5143 10.1636 12.2967 10.3812L11.5086 11.1693C10.7018 10.7871 9.97349 10.2711 9.35135 9.64899L7.83105 11.1693C10.0072 13.3454 12.477 14.4039 13.3474 13.5334L14.3982 12.4827C14.6158 12.265 14.6158 11.9122 14.3982 11.6946Z" fill="#DCF4FF"/>
</g>
<defs>
<clipPath id="clip0_1_205">
<rect width="19" height="19" fill="white"/>
</clipPath>
</defs>
</svg>
